<svg width="24.000000" height="24.000000" viewBox="0 0 24 24" fill="none" xmlns="http://www.w3.org/2000/svg" xmlns:xlink="http://www.w3.org/1999/xlink">
	<desc>
			Created with Pixso.
	</desc>
	<defs>
		<clipPath id="clip613_8715">
			<rect id="gearshape" width="24.000000" height="24.000000" fill="white" fill-opacity="0"/>
		</clipPath>
	</defs>
	<g clip-path="url(#clip613_8715)">
		<g opacity="0.000000">
			<rect id="rect" width="24.000000" height="24.000000" fill="#000000" fill-opacity="1.000000"/>
		</g>
		<path id="path" d="M14.18 22.56Q14.39 22.5 14.58 22.37C14.83 22.2 15.02 21.99 15.15 21.72L15.94 19.86L16.12 19.76C16.41 19.59 16.69 19.42 16.97 19.24L18.98 19.5C19.29 19.54 19.58 19.48 19.85 19.35C20.12 19.22 20.33 19.02 20.48 18.75L22.03 16.05C22.18 15.79 22.25 15.51 22.23 15.21C22.2 14.91 22.11 14.63 21.94 14.38L20.72 12.73L20.72 11.57L21.94 9.92C22.12 9.67 22.22 9.39 22.24 9.09Q22.25 8.94 22.22 8.8Q22.18 8.51 22.03 8.25L20.48 5.53C20.34 5.28 20.14 5.09 19.87 4.94C19.61 4.8 19.32 4.74 19.01 4.78L16.97 5.04C16.69 4.83 16.37 4.64 16.01 4.47L15.19 2.54C15.06 2.27 14.88 2.05 14.63 1.88C14.38 1.71 14.1 1.62 13.81 1.62L10.72 1.62C10.42 1.62 10.14 1.71 9.89 1.88Q9.63 2.05 9.46 2.28Q9.38 2.4 9.32 2.54L8.5 4.47L8.26 4.61C8.14 4.68 8.02 4.74 7.9 4.81C7.78 4.87 7.67 4.93 7.56 5.01L5.5 4.78C5.2 4.73 4.92 4.77 4.64 4.9Q4.46 5 4.31 5.13Q4.13 5.29 4 5.51L2.46 8.23Q2.37 8.37 2.32 8.52Q2.23 8.77 2.25 9.06Q2.28 9.34 2.38 9.59Q2.44 9.75 2.55 9.9L3.79 11.57L3.79 12.66L2.55 14.33Q2.35 14.6 2.28 14.9Q2.25 15.03 2.24 15.16Q2.24 15.34 2.27 15.52Q2.32 15.78 2.46 16.01L3.98 18.7C4.14 18.97 4.35 19.17 4.61 19.3C4.87 19.44 5.16 19.49 5.47 19.45L7.49 19.22Q8.14 19.64 8.48 19.81L9.3 21.7C9.4 21.98 9.58 22.2 9.83 22.37C10.08 22.54 10.36 22.62 10.67 22.62L13.76 22.62Q13.98 22.62 14.18 22.56ZM7.44 17.7L5.22 17.94L3.68 15.19L5 13.39C5.15 13.17 5.22 12.95 5.22 12.73C5.21 12.54 5.2 12.33 5.2 12.09C5.2 11.86 5.21 11.64 5.22 11.45Q5.22 11.26 5.16 11.09Q5.11 10.92 5 10.77L3.68 8.94L5.27 6.19L7.51 6.48C7.65 6.49 7.78 6.48 7.9 6.46C8.02 6.43 8.12 6.38 8.21 6.31C8.49 6.11 8.84 5.91 9.25 5.72C9.48 5.6 9.64 5.42 9.73 5.2L10.67 3.08L13.81 3.11L14.7 5.2C14.78 5.41 14.94 5.58 15.19 5.72C15.53 5.88 15.88 6.08 16.24 6.34C16.48 6.5 16.71 6.55 16.94 6.5L19.2 6.26L20.74 9.02L19.43 10.79C19.26 10.98 19.18 11.21 19.22 11.48C19.24 11.68 19.25 11.91 19.25 12.15C19.25 12.39 19.24 12.61 19.22 12.8C19.2 13.05 19.27 13.28 19.43 13.49L20.74 15.28L19.15 18.02L16.97 17.75C16.85 17.74 16.72 17.74 16.59 17.76C16.47 17.79 16.36 17.84 16.27 17.92C15.93 18.17 15.56 18.38 15.17 18.56C15.06 18.62 14.96 18.69 14.87 18.79C14.77 18.87 14.7 18.97 14.65 19.08L13.76 21.13L10.62 21.11L9.76 19.05C9.65 18.82 9.49 18.64 9.27 18.53C8.95 18.39 8.6 18.19 8.19 17.92C8.02 17.8 7.82 17.73 7.61 17.73L7.44 17.7ZM10.96 7.93Q10.5 8.07 10.08 8.32Q9.56 8.62 9.15 9.02Q8.75 9.42 8.46 9.91C8.06 10.58 7.86 11.31 7.86 12.12Q7.86 12.8 8.05 13.43Q8.19 13.9 8.45 14.34C8.84 15.03 9.37 15.57 10.04 15.97C10.71 16.37 11.45 16.57 12.24 16.57Q12.9 16.57 13.5 16.39Q13.99 16.25 14.45 15.98Q14.92 15.71 15.3 15.34Q15.73 14.92 16.05 14.38C16.44 13.71 16.64 12.97 16.64 12.16Q16.64 11.45 16.43 10.8Q16.29 10.36 16.06 9.95C15.67 9.27 15.14 8.73 14.48 8.33Q14.06 8.08 13.61 7.93Q12.98 7.73 12.29 7.73Q11.59 7.73 10.96 7.93ZM13.18 9.34Q13.46 9.43 13.72 9.59C14.17 9.86 14.52 10.22 14.78 10.68C15.04 11.13 15.17 11.63 15.17 12.16Q15.17 12.68 15 13.15Q14.91 13.4 14.78 13.63C14.52 14.09 14.17 14.44 13.72 14.7C13.28 14.96 12.79 15.09 12.24 15.09C11.71 15.09 11.22 14.96 10.77 14.69C10.31 14.42 9.96 14.06 9.71 13.61C9.45 13.15 9.32 12.65 9.32 12.12Q9.32 11.62 9.47 11.17Q9.56 10.9 9.72 10.65C9.98 10.19 10.34 9.84 10.79 9.58C11.24 9.32 11.73 9.19 12.26 9.19Q12.74 9.19 13.18 9.34Z" fill="#0A59F7" fill-opacity="0.800000" fill-rule="evenodd"/>
	</g>
</svg>
