<svg viewBox="0 0 34.1559 35" xmlns="http://www.w3.org/2000/svg" xmlns:xlink="http://www.w3.org/1999/xlink" width="34.155945" height="35.000000" fill="none" customFrame="#000000">
	<path id="矢量 16" d="M4.87945 22.41L0 22.41L12.4829 22.41L12.4446 34.7806L12.4602 29.7375L12.4446 35L7.77132 35L7.77134 27.0755L3.28009e-05 27.0755L0 22.41L4.87945 22.41L4.87945 22.41ZM0 12.6399L4.87945 12.6399L7.86323e-06 12.6399L7.63856e-06 8.97613L2.71843e-05 8.09098L4.87943 8.09098L7.57903 8.09098L7.57904 7.14759L7.57905 4.5L7.57906 2.5L7.57904 0L12.1986 0L12.1986 5.31234L12.1986 0L12.1986 12.6399L3.36996e-07 12.6399L0 12.6399ZM26.6175 27.0755L26.6175 35L21.9574 35L21.9574 22.41L34.1559 22.41L34.1559 27.0755L26.6175 27.0755ZM21.9574 1.19209e-07L23.079 1.19209e-07L24.579 4.17233e-07L26.6175 9.53674e-07L26.6175 2.86979L26.6175 5.37736L26.6175 8.09098L34.156 8.20755L34.1559 12.6399L34.1559 12.6399L21.9574 12.6399L21.9574 1.19209e-07Z" fill="rgb(44,44,44)" fill-rule="nonzero" />
</svg>
